<svg width="101" height="101" viewBox="0 0 101 101" fill="none" xmlns="http://www.w3.org/2000/svg">
<path d="M97.8001 41.5509C96.1002 37.3511 86.1001 33.8511 71.9001 31.9509C71.2002 37.4509 66.2002 41.6509 60.0001 41.6509C56.6999 41.6509 53.6999 40.4511 51.5001 38.4511C49.5001 41.8512 45.6 44.051 41.0001 44.051C34.3002 44.051 29.0001 39.1509 29.0001 32.951C29.0001 32.5509 29.0001 32.2511 29.1 31.8511C13.6 33.951 3 38.0509 3 42.8511C3 43.6512 3.40007 44.451 4 45.2512C8.40008 50.7512 27.6 54.9512 50.5 54.9512C76.7 54.9512 98 49.5511 98 42.8512C98 42.3512 97.9001 41.9511 97.8001 41.551L97.8001 41.5509Z" fill="#FCFCFC"/>
<path d="M4.09961 52.1509L6.39978 72.6509L7.19991 80.051C7.39978 81.451 8.29983 82.6509 9.50008 83.2508C15.6 85.9506 25.6001 87.8507 37.5001 88.7508C37.6999 90.3507 39.0001 91.6509 40.6999 91.6509H60.3999C61.9998 91.6509 63.3999 90.451 63.5997 88.7508C75.4997 87.8507 85.4997 85.8507 91.5997 83.2508C92.8999 82.6509 93.7996 81.4506 93.8999 80.051L94.7 72.6509L97.0002 52.1509C83.8002 60.051 54.6994 60.351 50.5002 60.351C46.301 60.351 17.2002 60.0509 4.10021 52.1509H4.09961ZM18.8996 74.4509C18.8996 74.8509 18.5995 75.0508 18.1997 75.0508C16.5998 74.8509 14.9999 74.5508 13.4999 74.2507C13.1998 74.1507 12.9999 73.9505 12.9999 73.6507V68.2507C12.9999 67.8506 13.3 67.5508 13.6998 67.6507C15.1998 67.9509 16.6998 68.2507 18.3996 68.5508C18.6997 68.6507 18.8996 68.8509 18.8996 69.1507V74.4509ZM32.0996 75.851C32.0996 76.1511 31.7995 76.4509 31.4997 76.4509C29.8998 76.351 28.2998 76.251 26.7998 76.0508C26.4997 76.0508 26.2998 75.7507 26.2998 75.4509V70.1507C26.2998 69.7507 26.6 69.5508 26.8998 69.5508C28.3998 69.6507 29.9997 69.8509 31.5996 69.9509C31.8997 69.9509 32.1995 70.251 32.1995 70.5508V75.851H32.0996ZM58.2996 86.251H42.6996L41.3998 73.051C47.0996 70.1509 53.8998 70.1509 59.5998 73.051L58.2996 86.251ZM82.0996 69.151C82.0996 68.8508 82.2995 68.651 82.5996 68.551C84.1995 68.2509 85.7995 67.9511 87.2995 67.6509C87.6995 67.551 87.9993 67.8508 87.9993 68.2509V73.651C87.9993 73.9511 87.7994 74.151 87.4993 74.2509C85.9993 74.551 84.3994 74.8508 82.7995 75.051C82.3994 75.151 82.0996 74.8512 82.0996 74.4511V69.151ZM68.8996 70.551C68.8996 70.2509 69.0995 69.9511 69.4995 69.9511C71.0995 69.8512 72.6994 69.7512 74.1994 69.551C74.5994 69.551 74.7993 69.7509 74.7993 70.151V75.4511C74.7993 75.7513 74.5994 76.0511 74.2993 76.0511C72.7993 76.151 71.1994 76.3512 69.5995 76.4511C69.1994 76.4511 68.9995 76.2513 68.9995 75.8512V70.551H68.8996Z" fill="#FCFCFC"/>
<path d="M41.0006 38.7507C44.7004 38.7507 47.6005 36.2507 47.6005 33.0509V19.7509L60.9005 18.051V25.051H60.0004C56.3006 25.051 53.4005 27.551 53.4005 30.7509C53.4005 33.9507 56.3006 36.4507 60.0004 36.4507C63.7002 36.4507 66.6003 33.9507 66.6003 30.7509V13.2509C66.6003 11.8508 66.0004 10.551 65.0004 9.65096C64.0004 8.75087 62.6003 8.35079 61.2002 8.45112L46.1002 10.4511C43.7001 10.7513 41.9004 12.8512 41.9004 15.2513V27.5513C37.9004 27.1512 34.4004 29.7511 34.4004 33.1512C34.4004 36.2508 37.3005 38.7508 41.0003 38.7508L41.0006 38.7507Z" fill="#FCFCFC"/>
</svg>
