<svg width="101" height="101" viewBox="0 0 101 101" fill="none" xmlns="http://www.w3.org/2000/svg">
<path d="M83.0988 2.55085L72.3988 4.15077C71.6989 4.2507 71.1989 4.85063 71.1989 5.55085V15.6509C70.599 15.451 69.8988 15.3507 69.1989 15.5509C67.2988 15.951 65.9991 17.5509 66.2989 19.1508C66.599 20.7507 68.3988 21.7507 70.2989 21.3507C71.9987 21.0505 73.1989 19.7508 73.1989 18.2508L73.1986 8.15075L82.6986 6.75067V13.8506C82.0987 13.6507 81.3984 13.5505 80.6986 13.7507C78.7985 14.1507 77.4988 15.7507 77.7985 17.3506C78.0987 18.9505 79.8984 19.9505 81.7985 19.5504C83.4984 19.2503 84.6986 17.9505 84.6986 16.4505V3.95048C84.6986 3.0504 83.8988 2.45048 83.0987 2.5504L83.0988 2.55085Z" fill="#FCFCFC"/>
<path d="M52.2176 8.44659C57.4103 9.97325 60.382 15.4206 58.8553 20.6133C57.3283 25.8059 51.881 28.7777 46.6886 27.2506C41.4959 25.7239 38.5242 20.2766 40.0509 15.0839C41.5777 9.89125 47.0249 6.9195 52.2176 8.44659Z" fill="#FCFCFC"/>
<path d="M74.5993 34.251C74.8994 32.4508 74.0993 30.6511 72.3994 29.751C71.1996 29.1511 69.7995 29.1511 68.6996 29.751L66.1996 27.8509C66.4997 25.8509 65.3995 23.9508 63.3994 23.4508C61.2995 22.8509 59.0993 24.0508 58.3994 26.1507C57.7995 28.2506 58.9994 30.4508 61.0993 31.1507C62.0993 31.4508 63.0993 31.3505 63.8994 30.9508L66.1996 32.6506C64.6996 35.4508 62.9998 38.2505 61.7995 39.8505C61.5997 39.6506 61.4994 39.4504 61.3995 39.2505C59.6996 36.7505 56.9994 32.9504 51.2995 31.2505L45.8994 29.6506L40.4993 28.051C33.1991 25.8512 26.8993 32.551 23.8993 35.7509L23.6994 35.9507C20.6994 39.0506 17.2993 46.6507 16.5995 48.1507C15.6994 50.2506 16.5995 52.7506 18.6994 53.6507C19.1994 53.8506 19.7993 54.0508 20.3993 54.0508C21.9992 54.0508 23.4992 53.1507 24.1994 51.5508C25.5995 48.351 28.1994 43.2506 29.6994 41.6508L29.8993 41.4509C30.5992 40.7511 31.7994 39.4509 33.1995 38.351L27.9996 55.851C27.5996 57.1512 27.3997 58.5508 27.3997 59.9509C27.1998 69.7509 26.8997 73.6509 26.6998 74.3509C26.0992 75.9512 21.4993 83.7509 17.499 90.0509C16.0989 92.3511 16.6989 95.3511 18.999 96.7508C19.7991 97.2508 20.6988 97.5509 21.5989 97.5509C23.1988 97.5509 24.7987 96.7508 25.6988 95.2507C29.1988 89.6508 35.2988 79.8507 36.0988 76.7507C36.2987 76.0509 36.7987 74.1508 36.9989 63.2507L37.1988 63.4506C40.9989 67.5505 44.6988 72.7506 44.9989 74.1506C44.9989 77.3504 44.0989 88.3506 43.7991 92.3506C43.5992 95.0504 45.5993 97.3506 48.1992 97.5504C50.899 97.7503 53.1992 95.7503 53.399 93.1503C53.399 92.5504 54.5989 78.5503 54.5989 74.2503C54.5989 69.9503 50.2987 64.0503 46.6988 59.6503L52.4989 41.4503C53.1988 42.2505 53.7991 43.0503 54.4989 44.0503C55.899 46.0503 57.6988 48.6502 60.9989 49.2501C61.2991 49.35 61.6988 49.35 62.0989 49.35C64.0989 49.35 67.4989 47.9499 72.8989 37.75L74.7989 39.1501C75.0991 39.35 75.4988 39.5502 75.8989 39.5502C76.4988 39.5502 76.9988 39.25 77.3989 38.8503C77.9988 38.0502 77.7989 36.8503 76.9988 36.2504L74.5993 34.251Z" fill="#FCFCFC"/>
</svg>
