<svg width="101" height="101" viewBox="0 0 101 101" fill="none" xmlns="http://www.w3.org/2000/svg">
<path d="M11.6667 92C11.6667 92 4 92 4 84.3333C4 76.6667 11.6667 53.6667 50 53.6667C88.3333 53.6667 96 76.6667 96 84.3333C96 92 88.3333 92 88.3333 92H11.6667Z" fill="#FCFCFC"/>
<path d="M50 46C62.7025 46 73 35.7025 73 23C73 10.2975 62.7025 0 50 0C37.2974 0 27 10.2975 27 23C27 35.7025 37.2974 46 50 46Z" fill="#FCFCFC"/>
<path d="M63.5454 81.7273C63.5454 83.5348 62.0802 85 60.2727 85C58.4652 85 57 83.5348 57 81.7273C57 79.9198 58.4652 78.4546 60.2727 78.4546C62.0802 78.4546 63.5454 79.9198 63.5454 81.7273Z" fill="#151515"/>
<path d="M74.1802 80.0906C74.1802 81.8981 72.715 83.3633 70.9075 83.3633C69.1 83.3633 67.6348 81.8981 67.6348 80.0906C67.6348 78.2831 69.1 76.8179 70.9075 76.8179C72.715 76.8179 74.1802 78.2831 74.1802 80.0906Z" fill="#151515"/>
<path d="M74.1809 67.8181V80.0908C74.1809 80.5408 73.8127 80.909 73.3627 80.909C72.9127 80.909 72.5446 80.5408 72.5446 80.0908V71.8927L63.5446 73.2754V81.7273C63.5446 82.1773 63.1764 82.5455 62.7264 82.5455C62.2764 82.5455 61.9082 82.1773 61.9082 81.7273V69.4546C61.9082 69.0537 62.2027 68.71 62.6037 68.6446L73.24 67.0082C73.4773 66.9755 73.7146 67.0409 73.8946 67.1964C74.0746 67.3519 74.1809 67.5809 74.1809 67.8182V67.8181Z" fill="#151515"/>
</svg>
